<?xml version="1.0" encoding="utf-8"?>
<svg viewBox="29.539 23.245 184.992 160.93" width="184.992" height="160.93" xmlns="http://www.w3.org/2000/svg">
  <g style="" transform="matrix(0.646159, 0, 0, 0.645938, -120.92393, -127.302714)">
    <path d="m487.86 482.21h-221.15c-1.6406 0-3.1641-0.85156-4.0273-2.2461l-29.117-47.129c-0.92578-1.5-0.94531-3.3789-0.046875-4.8984l113.8-192.54c0.85156-1.4414 2.4023-2.3281 4.0781-2.3281h50.25c1.6797 0 3.2383 0.89453 4.0859 2.3398l112.77 192.54c0.85156 1.457 0.86719 3.25 0.039063 4.7227l-26.555 47.129c-0.84375 1.4883-2.4219 2.4102-4.1328 2.4102zm-218.51-9.4727h215.74l23.863-42.344-110.02-187.85h-44.836l-110.97 187.75z" style="stroke-linecap: square; stroke-miterlimit: 1; stroke-dashoffset: 17px; stroke: rgb(0, 0, 0); stroke-width: 2.09981px;"/>
    <path d="M 483.76 479.85 L 444.309 411.945 L 404.858 344.04 L 392.035 364.116 L 379.213 384.192 C 378.777 384.874 378.184 385.421 377.497 385.797 C 376.81 386.173 376.029 386.38 375.221 386.38 L 347.16 386.38 L 319.1 386.38 C 318.254 386.38 317.442 386.154 316.735 385.746 C 316.028 385.338 315.426 384.747 315.002 384.016 C 314.578 383.286 314.365 382.469 314.364 381.652 C 314.362 380.836 314.572 380.018 314.994 379.286 L 356.266 307.366 L 397.537 235.446 L 401.645 237.805 L 405.752 240.165 L 366.514 308.535 L 327.275 376.905 L 349.949 376.905 L 372.623 376.905 L 386.838 354.647 L 401.053 332.389 C 401.498 331.693 402.103 331.125 402.805 330.741 C 403.507 330.357 404.307 330.158 405.143 330.201 C 405.969 330.219 406.76 330.451 407.449 330.858 C 408.137 331.264 408.723 331.846 409.139 332.56 L 450.545 403.83 L 491.951 475.1 L 487.855 477.475 Z" style="stroke-linecap: square; stroke-miterlimit: 1; stroke-dashoffset: 17px; paint-order: fill; stroke-width: 23.0979px;"/>
    <path d="m403.48 435.05h-165.89v-9.4727h157.66l-24.129-41.555 8.1914-4.7539 28.258 48.668c0.85156 1.4648 0.85156 3.2695 0.007812 4.7383s-2.4062 2.375-4.1016 2.375z" style="stroke-linecap: square;stroke-miterlimit: 1;stroke-dashoffset: 17px;stroke: ${color};stroke-width: 9.46464px;"/>
  </g>
</svg>